name rise30.6535peak61.5555fall82.9339.mot
datacolumns 19
datarows 18
range 11.48661900000000 11.51495200000000
endheader
time	ground_force1_vx	ground_force1_vy	ground_force1_vz	ground_force1_px	ground_force1_py	ground_force1_pz	ground_force2_vx	ground_force2_vy	ground_force2_vz	ground_force2_px	ground_force2_py	ground_force2_pz	ground_torque1_x	ground_torque1_y	ground_torque1_z	ground_torque2_x	ground_torque2_y	ground_torque2_z	
11.48661900000000	62.60349700000000	737.80551900000000	55.39527300000000	0.36424200000000	0.00000000000000	0.09519200000000	0.00000000000000	0.00000000000000	0.00000000000000	0.00000000000000	0.00000000000000	0.00000000000000	0.00000000000000	28.27862300000000	0.00000000000000	0.00000000000000	0.00000000000000	0.00000000000000	
11.48829000000000	62.23366700000000	741.85419999999999	55.58408700000000	0.36363400000000	0.00000000000000	0.09511500000000	0.00000000000000	0.00000000000000	0.00000000000000	0.00000000000000	0.00000000000000	0.00000000000000	0.00000000000000	28.39710300000000	0.00000000000000	0.00000000000000	0.00000000000000	0.00000000000000	
11.48994900000000	61.86884700000000	745.79996600000004	55.76970700000000	0.36306700000000	0.00000000000000	0.09503600000000	0.00000000000000	0.00000000000000	0.00000000000000	0.00000000000000	0.00000000000000	0.00000000000000	0.00000000000000	28.51548300000000	0.00000000000000	0.00000000000000	0.00000000000000	0.00000000000000	
11.49161600000000	61.50899100000000	749.63864300000000	55.95181700000000	0.36253700000000	0.00000000000000	0.09495400000000	0.00000000000000	0.00000000000000	0.00000000000000	0.00000000000000	0.00000000000000	0.00000000000000	0.00000000000000	28.63354500000000	0.00000000000000	0.00000000000000	0.00000000000000	0.00000000000000	
11.49328100000000	61.15398800000000	753.36617000000001	56.13004500000000	0.36204500000000	0.00000000000000	0.09486900000000	0.00000000000000	0.00000000000000	0.00000000000000	0.00000000000000	0.00000000000000	0.00000000000000	0.00000000000000	28.75103600000000	0.00000000000000	0.00000000000000	0.00000000000000	0.00000000000000	
11.49495600000000	60.80367800000000	756.97861899999998	56.30397400000000	0.36158800000000	0.00000000000000	0.09478200000000	0.00000000000000	0.00000000000000	0.00000000000000	0.00000000000000	0.00000000000000	0.00000000000000	0.00000000000000	28.86766700000000	0.00000000000000	0.00000000000000	0.00000000000000	0.00000000000000	
11.49662000000000	60.45784500000000	760.47221000000002	56.47314500000000	0.36116500000000	0.00000000000000	0.09469200000000	0.00000000000000	0.00000000000000	0.00000000000000	0.00000000000000	0.00000000000000	0.00000000000000	0.00000000000000	28.98312100000000	0.00000000000000	0.00000000000000	0.00000000000000	0.00000000000000	
11.49828200000000	60.11623100000000	763.84333000000004	56.63706300000000	0.36077400000000	0.00000000000000	0.09459900000000	0.00000000000000	0.00000000000000	0.00000000000000	0.00000000000000	0.00000000000000	0.00000000000000	0.00000000000000	29.09705400000000	0.00000000000000	0.00000000000000	0.00000000000000	0.00000000000000	
11.49994800000000	59.77853800000000	767.08854899999994	56.79519900000000	0.36041200000000	0.00000000000000	0.09450400000000	0.00000000000000	0.00000000000000	0.00000000000000	0.00000000000000	0.00000000000000	0.00000000000000	0.00000000000000	29.20909500000000	0.00000000000000	0.00000000000000	0.00000000000000	0.00000000000000	
11.50161500000000	59.44443200000000	770.20463800000005	56.94700200000000	0.36007800000000	0.00000000000000	0.09440600000000	0.00000000000000	0.00000000000000	0.00000000000000	0.00000000000000	0.00000000000000	0.00000000000000	0.00000000000000	29.31885600000000	0.00000000000000	0.00000000000000	0.00000000000000	0.00000000000000	
11.50328200000000	59.11354700000000	773.18858000000000	57.09189900000000	0.35977000000000	0.00000000000000	0.09430600000000	0.00000000000000	0.00000000000000	0.00000000000000	0.00000000000000	0.00000000000000	0.00000000000000	0.00000000000000	29.42593100000000	0.00000000000000	0.00000000000000	0.00000000000000	0.00000000000000	
11.50495600000000	58.78549600000000	776.03758400000004	57.22930200000000	0.35948500000000	0.00000000000000	0.09420400000000	0.00000000000000	0.00000000000000	0.00000000000000	0.00000000000000	0.00000000000000	0.00000000000000	0.00000000000000	29.52989800000000	0.00000000000000	0.00000000000000	0.00000000000000	0.00000000000000	
11.50662200000000	58.45986900000000	778.74910100000000	57.35861600000000	0.35922300000000	0.00000000000000	0.09409900000000	0.00000000000000	0.00000000000000	0.00000000000000	0.00000000000000	0.00000000000000	0.00000000000000	0.00000000000000	29.63032700000000	0.00000000000000	0.00000000000000	0.00000000000000	0.00000000000000	
11.50828900000000	58.13624000000000	781.32082900000000	57.47924200000000	0.35898000000000	0.00000000000000	0.09399200000000	0.00000000000000	0.00000000000000	0.00000000000000	0.00000000000000	0.00000000000000	0.00000000000000	0.00000000000000	29.72678200000000	0.00000000000000	0.00000000000000	0.00000000000000	0.00000000000000	
11.50995600000000	57.81417700000000	783.75072699999998	57.59058300000000	0.35875400000000	0.00000000000000	0.09388300000000	0.00000000000000	0.00000000000000	0.00000000000000	0.00000000000000	0.00000000000000	0.00000000000000	0.00000000000000	29.81882300000000	0.00000000000000	0.00000000000000	0.00000000000000	0.00000000000000	
11.51162200000000	57.49324000000000	786.03702099999998	57.69205300000000	0.35854300000000	0.00000000000000	0.09377100000000	0.00000000000000	0.00000000000000	0.00000000000000	0.00000000000000	0.00000000000000	0.00000000000000	0.00000000000000	29.90600900000000	0.00000000000000	0.00000000000000	0.00000000000000	0.00000000000000	
11.51328900000000	57.17298900000000	788.17821200000003	57.78307400000000	0.35834600000000	0.00000000000000	0.09365800000000	0.00000000000000	0.00000000000000	0.00000000000000	0.00000000000000	0.00000000000000	0.00000000000000	0.00000000000000	29.98790300000000	0.00000000000000	0.00000000000000	0.00000000000000	0.00000000000000	
11.51495200000000	56.85298700000000	790.17308400000002	57.86309000000000	0.35816000000000	0.00000000000000	0.09354200000000	0.00000000000000	0.00000000000000	0.00000000000000	0.00000000000000	0.00000000000000	0.00000000000000	0.00000000000000	30.06407500000000	0.00000000000000	0.00000000000000	0.00000000000000	0.00000000000000	
